<svg width="24" height="25" viewBox="0 0 24 25" fill="none" xmlns="http://www.w3.org/2000/svg">
    <mask id="mask0_100_4" style="mask-type:luminance" maskUnits="userSpaceOnUse" x="3" y="3"
        width="18" height="19">
        <path d="M21 3.76831H3V21.7683H21V3.76831Z" fill="white" />
    </mask>
    <g mask="url(#mask0_100_4)">
        <mask id="mask1_100_4" style="mask-type:luminance" maskUnits="userSpaceOnUse" x="3" y="3"
            width="18" height="19">
            <path d="M3 3.76831H21V21.7683H3V3.76831Z" fill="white" />
        </mask>
        <g mask="url(#mask1_100_4)">
            <path
                d="M20.4727 12.7683C20.4727 17.4282 16.6599 21.241 12 21.241C7.34011 21.241 3.52734 17.4282 3.52734 12.7683C3.52734 8.10841 7.34011 4.29565 12 4.29565C16.6599 4.29565 20.4727 8.10841 20.4727 12.7683Z"
                stroke="white" stroke-miterlimit="10" stroke-linecap="round" stroke-linejoin="round" />
            <path
                d="M12 19.0964C8.51046 19.0964 5.67188 16.2578 5.67188 12.7683C5.67188 9.27877 8.51046 6.44019 12 6.44019C15.4895 6.44019 18.3281 9.27877 18.3281 12.7683C18.3281 16.2578 15.4895 19.0964 12 19.0964Z"
                stroke="white" stroke-miterlimit="10" stroke-linecap="round" stroke-linejoin="round" />
            <path d="M12 8.54419V16.9871" stroke="white" stroke-miterlimit="10"
                stroke-linecap="round" stroke-linejoin="round" />
            <path
                d="M12 12.7629C13.165 12.7629 14.1094 13.4712 14.1094 14.345C14.1094 15.2187 13.165 15.927 12 15.927C10.835 15.927 9.89062 15.2187 9.89062 14.345"
                stroke="white" stroke-miterlimit="10" stroke-linecap="round" stroke-linejoin="round" />
            <path
                d="M14.1094 11.1809C14.1094 10.3072 13.165 9.59888 12 9.59888C10.835 9.59888 9.89062 10.3072 9.89062 11.1809C9.89062 12.0546 10.835 12.7629 12 12.7629"
                stroke="white" stroke-miterlimit="10" stroke-linecap="round" stroke-linejoin="round" />
        </g>
    </g>
</svg>