<svg width="31" height="30" viewBox="0 0 31 30" fill="none" xmlns="http://www.w3.org/2000/svg">
    <g clip-path="url(#clip0_11434_4554)">
        <path fill-rule="evenodd" clip-rule="evenodd"
            d="M19.9782 25.3111C20.3587 25.3111 20.6671 25.0226 20.6671 24.6666C20.6671 24.3107 20.3587 24.0222 19.9782 24.0222C19.5977 24.0222 19.2893 24.3107 19.2893 24.6666C19.2893 25.0226 19.5977 25.3111 19.9782 25.3111ZM19.9782 27.2444C21.5 27.2444 22.7338 26.0903 22.7338 24.6666C22.7338 23.243 21.5 22.0889 19.9782 22.0889C18.4564 22.0889 17.2227 23.243 17.2227 24.6666C17.2227 26.0903 18.4564 27.2444 19.9782 27.2444Z"
            fill="white" />
        <path fill-rule="evenodd" clip-rule="evenodd"
            d="M11.7116 25.3111C12.0921 25.3111 12.4005 25.0226 12.4005 24.6666C12.4005 24.3107 12.0921 24.0222 11.7116 24.0222C11.3311 24.0222 11.0227 24.3107 11.0227 24.6666C11.0227 25.0226 11.3311 25.3111 11.7116 25.3111ZM11.7116 27.2444C13.2334 27.2444 14.4672 26.0903 14.4672 24.6666C14.4672 23.243 13.2334 22.0889 11.7116 22.0889C10.1898 22.0889 8.95605 23.243 8.95605 24.6666C8.95605 26.0903 10.1898 27.2444 11.7116 27.2444Z"
            fill="white" />
        <path fill-rule="evenodd" clip-rule="evenodd"
            d="M1.89631 3.50771C2.21288 3.0635 2.85444 2.94346 3.32929 3.2396L4.93854 4.24322C5.45252 4.56375 5.81536 5.05659 5.95224 5.62007L8.78737 17.2899C8.96558 18.0234 9.66267 18.5439 10.4668 18.5439H21.2232C22.0273 18.5439 22.7244 18.0234 22.9026 17.2899L25.0945 8.26766C25.3394 7.25949 24.5203 6.29946 23.4151 6.29946H12.745C12.1743 6.29946 11.7116 5.86668 11.7116 5.33281C11.7116 4.79893 12.1743 4.36614 12.745 4.36614H23.4151C25.8465 4.36614 27.6487 6.4781 27.1098 8.69609L24.9179 17.7183C24.5258 19.3321 22.9923 20.4772 21.2232 20.4772H10.4668C8.69774 20.4772 7.16414 19.3321 6.77209 17.7183L3.93697 6.04852C3.91741 5.96805 3.86557 5.89764 3.79215 5.85185L2.18291 4.84823C1.70806 4.55209 1.57975 3.95192 1.89631 3.50771Z"
            fill="white" />
        <path fill-rule="evenodd" clip-rule="evenodd"
            d="M11.7037 12.461C12.107 12.0833 12.7612 12.083 13.165 12.4603L14.3838 13.5993L18.5237 9.7265C18.9272 9.34898 19.5814 9.34898 19.985 9.7265C20.3885 10.104 20.3885 10.716 19.985 11.0936L15.1148 15.6496C14.7114 16.0269 14.0575 16.0271 13.6538 15.6499L11.7043 13.8281C11.3007 13.4507 11.3003 12.8386 11.7037 12.461Z"
            fill="white" />
    </g>
    <defs>
        <clipPath id="clip0_11434_4554">
            <rect width="31" height="29" fill="white" transform="translate(0 0.5)" />
        </clipPath>
    </defs>
</svg>