<svg width="29" height="30" viewBox="0 0 29 30" fill="none" xmlns="http://www.w3.org/2000/svg">
<g clip-path="url(#clip0_958_945)">
<path d="M6.03868 14.1631C4.24744 14.1631 2.79028 12.6676 2.79028 10.83C2.79028 8.99214 4.24744 7.49664 6.03868 7.49664C7.82969 7.49664 9.28663 8.99191 9.28663 10.83C9.28663 12.6678 7.82969 14.1631 6.03868 14.1631ZM6.03868 8.43213C4.74536 8.43213 3.69351 9.50784 3.69351 10.83C3.69351 12.1519 4.74536 13.2276 6.03868 13.2276C7.33155 13.2276 8.3834 12.1519 8.3834 10.83C8.3834 9.50784 7.33155 8.43213 6.03868 8.43213Z" fill="#0D0252"/>
<path d="M7.34542 23.3919H1.68041C1.02945 23.3919 0.5 22.8469 0.5 22.1771V20.6471C0.5 17.515 2.98453 14.9666 6.03865 14.9666C7.23979 14.9666 8.38316 15.3548 9.34416 16.0891C9.54483 16.2426 9.58761 16.5354 9.43942 16.7435C9.29124 16.9511 9.00876 16.9954 8.80787 16.8421C8.00321 16.2273 7.04574 15.9021 6.03865 15.9021C3.48267 15.9021 1.40323 18.0309 1.40323 20.6471V22.1771C1.40323 22.331 1.5276 22.4564 1.68041 22.4564H7.34564C7.59482 22.4564 7.79725 22.6658 7.79725 22.9241C7.79725 23.1822 7.59482 23.3919 7.34542 23.3919Z" fill="#0D0252"/>
<path d="M27.3196 23.0379H21.6546C21.4054 23.0379 21.203 22.8284 21.203 22.5701C21.203 22.312 21.4054 22.1024 21.6546 22.1024H27.3198C27.4726 22.1024 27.597 21.9772 27.597 21.8233V20.2933C27.597 17.6766 25.5175 15.5483 22.9616 15.5483C21.894 15.5483 20.8519 15.929 20.027 16.6206C19.8333 16.783 19.5491 16.7521 19.3919 16.5514C19.2351 16.3506 19.2646 16.056 19.4589 15.8934C20.4439 15.0677 21.6879 14.6128 22.9616 14.6128C26.0155 14.6128 28.5 17.1609 28.5 20.2933V21.8233C28.5 22.4929 27.9705 23.0379 27.3196 23.0379Z" fill="#0D0252"/>
<path d="M22.9613 13.932C21.1703 13.932 19.7134 12.4367 19.7134 10.5988C19.7134 8.761 21.1703 7.2655 22.9613 7.2655C24.7526 7.2655 26.2097 8.76077 26.2097 10.5988C26.2097 12.4369 24.7523 13.932 22.9613 13.932ZM22.9613 8.20099C21.6685 8.20099 20.6166 9.2767 20.6166 10.5988C20.6166 11.921 21.6685 12.9965 22.9613 12.9965C24.2546 12.9965 25.3065 11.921 25.3065 10.5988C25.3065 9.2767 24.2544 8.20099 22.9613 8.20099Z" fill="#0D0252"/>
<path d="M20.6294 24.9139H8.37058C7.55622 24.9139 6.8938 24.2328 6.8938 23.3955V21.2436C6.8938 16.9431 10.3056 13.4444 14.5 13.4444C18.6944 13.4444 22.1062 16.9431 22.1062 21.2436V23.3955C22.1062 24.2328 21.4438 24.9139 20.6294 24.9139ZM14.5 14.3801C10.804 14.3801 7.79702 17.4592 7.79702 21.2439V23.3958C7.79702 23.7171 8.05436 23.9786 8.37058 23.9786H20.6292C20.9454 23.9786 21.2027 23.7171 21.2027 23.3958V21.2439C21.203 17.4592 18.196 14.3801 14.5 14.3801Z" fill="#0D0252"/>
<path d="M14.343 12.8978C12.0417 12.8978 10.1691 10.9768 10.1691 8.6153C10.1691 6.25398 12.0415 4.33322 14.343 4.33322C16.6447 4.33322 18.5171 6.25421 18.5171 8.61553C18.5171 10.9771 16.6445 12.8978 14.343 12.8978ZM14.343 5.26871C12.5397 5.26871 11.0724 6.77014 11.0724 8.61553C11.0724 10.4611 12.5397 11.9626 14.343 11.9626C16.1466 11.9626 17.6139 10.4611 17.6139 8.61553C17.6139 6.77014 16.1466 5.26871 14.343 5.26871Z" fill="#0D0252"/>
</g>
<defs>
<clipPath id="clip0_958_945">
<rect width="28" height="29" fill="white" transform="translate(0.5 0.123535)"/>
</clipPath>
</defs>
</svg>
