<svg width="29" height="26" viewBox="0 0 29 26" fill="none" xmlns="http://www.w3.org/2000/svg">
<g clip-path="url(#clip0_12081_5152)">
<path d="M10.5059 12.4483C10.5059 13.6301 9.63208 14.6335 8.43032 14.9718L8.43792 15.2743C8.44963 15.7402 8.06747 16.127 7.58436 16.1382C7.57714 16.1384 7.56998 16.1385 7.56276 16.1385C7.08938 16.1385 6.69995 15.774 6.68847 15.3151L6.68027 14.9874C6.03386 14.8145 5.58898 14.4551 5.18708 14.0895C4.83555 13.7697 4.81941 13.2357 5.15104 12.8968C5.48266 12.5578 6.03638 12.5423 6.38796 12.862C6.84433 13.2772 7.06253 13.4064 7.53831 13.4064C8.20966 13.4064 8.75587 12.9766 8.75587 12.4483C8.75587 11.9199 8.20971 11.4901 7.53831 11.4901C5.90195 11.4901 4.5707 10.3033 4.5707 8.8445C4.57075 7.6622 5.44526 6.6585 6.64784 6.32053L6.6387 5.95191C6.62716 5.48606 7.00938 5.09941 7.49254 5.08828C7.49965 5.08807 7.50676 5.08802 7.51381 5.08802C7.98741 5.08802 8.37678 5.45263 8.38816 5.91157L8.39871 6.3364C9.05031 6.52118 9.76891 6.888 10.1259 7.41187C10.3913 7.80126 10.2791 8.32443 9.87522 8.58035C9.47146 8.83617 8.92891 8.72806 8.66345 8.33862C8.53636 8.17219 7.87497 7.88642 7.53815 7.88637C6.86697 7.88642 6.32069 8.31626 6.32064 8.84461C6.32064 9.3729 6.86686 9.80268 7.53826 9.80268C9.17462 9.80263 10.5059 10.9895 10.5059 12.4483ZM16.2642 8.04684H21.6965C22.1798 8.04684 22.5715 7.6691 22.5715 7.20309C22.5715 6.73708 22.1798 6.35934 21.6965 6.35934H16.2642C15.781 6.35934 15.3892 6.73708 15.3892 7.20309C15.3892 7.6691 15.781 8.04684 16.2642 8.04684ZM16.2642 11.457H21.6965C22.1798 11.457 22.5715 11.0793 22.5715 10.6133C22.5715 10.1472 22.1798 9.76951 21.6965 9.76951H16.2642C15.781 9.76951 15.3892 10.1472 15.3892 10.6133C15.3892 11.0793 15.781 11.457 16.2642 11.457ZM16.2642 14.8671H21.6965C22.1798 14.8671 22.5715 14.4894 22.5715 14.0234C22.5715 13.5574 22.1798 13.1796 21.6965 13.1796H16.2642C15.781 13.1796 15.3892 13.5574 15.3892 14.0234C15.3892 14.4894 15.781 14.8671 16.2642 14.8671ZM28.6055 5.55087V21.3008C28.6055 21.7668 28.2137 22.1445 27.7305 22.1445H4.39723C3.91395 22.1445 3.52223 21.7668 3.52223 21.3008V19.3319H1.48047C0.997195 19.3319 0.605469 18.9542 0.605469 18.4882V2.73828C0.605469 2.27227 0.997195 1.89453 1.48047 1.89453H9.46293C10.9748 1.89453 12.3172 2.60792 13.1471 3.70385C13.9771 2.60792 15.3195 1.89453 16.8313 1.89453H24.8137C25.297 1.89453 25.6887 2.27227 25.6887 2.73828V4.70712H27.7305C28.2137 4.70712 28.6055 5.08486 28.6055 5.55087ZM14.0221 6.29089V17.6444H23.9387V3.58203H16.8313C15.2823 3.58203 14.0221 4.79724 14.0221 6.29089ZM2.35547 17.6444H12.2721V6.29089C12.2721 4.79724 11.0119 3.58203 9.46293 3.58203H2.35547V17.6444ZM26.8555 6.39462H25.6887V18.4882C25.6887 18.9542 25.297 19.3319 24.8137 19.3319H5.27223V20.457H26.8555V6.39462Z" fill="#0A003D"/>
</g>
<defs>
<clipPath id="clip0_12081_5152">
<rect width="28" height="27" fill="white" transform="translate(0.605469 -1.48047)"/>
</clipPath>
</defs>
</svg>
